<svg id="a9c8fbae-1b98-40b8-b662-9d3e4efeb41a" data-name="Layer 1" xmlns="http://www.w3.org/2000/svg" viewBox="0 0 250 250"><defs><style>.e9a802ec-2cb7-4c40-8059-7e5c7be18ce5{fill:#16255c;}.fdade39b-fc4c-4c13-9355-9243f212486a{fill:#ed4096;}</style></defs><path class="e9a802ec-2cb7-4c40-8059-7e5c7be18ce5" d="M51.2,80.21H36.86a1.42,1.42,0,0,0-1.44,1.42v42.68a1.42,1.42,0,0,0,1.44,1.42h7.5a1.43,1.43,0,0,0,1.44-1.42v-12.6a1.44,1.44,0,0,1,1.44-1.43h4.24c9.74,0,18-4.72,18-15.43C69.46,83.79,61.31,80.21,51.2,80.21Zm-.33,21.91H47.24a1.44,1.44,0,0,1-1.44-1.43V89.81a1.45,1.45,0,0,1,1.44-1.44h3.35c5.62,0,8.69,1.72,8.69,6.48S56.58,102.12,50.87,102.12Z"/><path class="e9a802ec-2cb7-4c40-8059-7e5c7be18ce5" d="M82,80.21h-7.5A1.42,1.42,0,0,0,73,81.63v42.68a1.42,1.42,0,0,0,1.44,1.42H82a1.43,1.43,0,0,0,1.44-1.42V81.63A1.43,1.43,0,0,0,82,80.21Z"/><path class="e9a802ec-2cb7-4c40-8059-7e5c7be18ce5" d="M122.43,123.62l-4.52-8.17-.83-1.46-5.83-10.53a1.41,1.41,0,0,1,0-1.34l10.49-19.83a1.42,1.42,0,0,0-1.28-2.08h-7.75a1.42,1.42,0,0,0-1.32.88l-3.28,7.72c-.92,2.1-1.88,4.44-3,7.3h-.28c-1.32-2.86-2.31-5.2-3.33-7.3l-3.62-7.76a1.41,1.41,0,0,0-1.3-.84H88.37a1.42,1.42,0,0,0-1.26,2.1l10.44,19.32a1.37,1.37,0,0,1,0,1.36l-6,11-.81,1.46-4.43,8.18a1.43,1.43,0,0,0,1.27,2.1h7.76a1.44,1.44,0,0,0,1.31-.83l3.92-8.45c.14-.33.29-.66.44-1s.42-1,.63-1.46c.69-1.58,1.38-3.21,2.08-5H104c.81,1.82,1.55,3.45,2.26,5,.24.49.46,1,.7,1.46l.48,1,4.14,8.48a1.45,1.45,0,0,0,1.31.8h8.24A1.43,1.43,0,0,0,122.43,123.62Z"/><path class="fdade39b-fc4c-4c13-9355-9243f212486a" d="M181.72,152.67H150a2.8,2.8,0,0,1-2.82-2.79v-15a2.8,2.8,0,0,1,2.82-2.79h25a2.81,2.81,0,0,0,2.82-2.81V117.92a2.8,2.8,0,0,0-2.82-2.8H150a2.81,2.81,0,0,1-2.82-2.81V100a2.81,2.81,0,0,1,2.82-2.8h30.34a2.81,2.81,0,0,0,2.82-2.79V83a2.81,2.81,0,0,0-2.82-2.8H129.68a2.8,2.8,0,0,0-2.81,2.8v25.88a3.41,3.41,0,0,1,1.26-.24H142a3.11,3.11,0,0,1,3.2,3.22c0,1.18,0,2.35,0,3.53a1.35,1.35,0,0,0,1,1.35l2.68.91a1.31,1.31,0,0,1,1,1.36v10.39a1.32,1.32,0,0,1-1,1.33l-2.67.9a1.37,1.37,0,0,0-1,1.39c0,1.18,0,2.34,0,3.5a3.09,3.09,0,0,1-3.2,3.2q-6.92,0-13.83,0a3.53,3.53,0,0,1-1.29-.24v27.34a2.81,2.81,0,0,0,2.81,2.8h52a2.82,2.82,0,0,0,2.82-2.8V155.47A2.82,2.82,0,0,0,181.72,152.67Zm-45.88-36.25a7.78,7.78,0,1,0,7.78,7.79A7.78,7.78,0,0,0,135.84,116.42Zm0,12.44a4.66,4.66,0,1,1,4.65-4.64A4.62,4.62,0,0,1,135.87,128.86Zm4,6.67a1.11,1.11,0,0,0,1.1,1.1,1.09,1.09,0,0,0,0-2.17A1.11,1.11,0,0,0,139.91,135.53Zm-9.71-20.81a.72.72,0,0,0-.74-.73h-2.59v1.46h2.59A.72.72,0,0,0,130.2,114.72Z"/><path class="e9a802ec-2cb7-4c40-8059-7e5c7be18ce5" d="M213.14,117.1H197.89a1.43,1.43,0,0,1-1.44-1.43v-34A1.43,1.43,0,0,0,195,80.21h-7.52a1.43,1.43,0,0,0-1.44,1.42v42.68a1.43,1.43,0,0,0,1.44,1.42h25.65a1.42,1.42,0,0,0,1.44-1.42v-5.79A1.44,1.44,0,0,0,213.14,117.1Z"/><path class="fdade39b-fc4c-4c13-9355-9243f212486a" d="M121.62,128.69H114a1.2,1.2,0,0,0-1.16.85l-5.9,17.4c-.78,2.44-1.46,5.07-2.24,7.59h-.25c-.77-2.52-1.46-5.15-2.26-7.59l-6.08-17.42a1.23,1.23,0,0,0-1.16-.83H87.37A1.26,1.26,0,0,0,86.14,130V168.5a1.26,1.26,0,0,0,1.23,1.29h5.51a1.26,1.26,0,0,0,1.24-1.29V154.71c0-4-.72-10-1.14-14h.24l3.14,9.73,5.27,14.9a1.22,1.22,0,0,0,1.17.84H106a1.21,1.21,0,0,0,1.15-.84l5.27-14.9,3.23-9.73h.23c-.41,4-1.13,10-1.13,14V168.5a1.25,1.25,0,0,0,1.22,1.29h5.64a1.26,1.26,0,0,0,1.24-1.29V130A1.26,1.26,0,0,0,121.62,128.69Z"/></svg>