<svg id="b16ccc67-74c7-477e-8280-e40c89fe13a5" data-name="Layer 1" xmlns="http://www.w3.org/2000/svg" viewBox="0 0 250 250"><defs><style>.a2dd75a7-3f09-4e7b-974f-2f7dd9a2e22c{fill:#16255c;}.bd9fbb58-16d6-4ebe-a9b8-0497e0b5b4e9{fill:#f085f5;}.a860105c-5dbc-4110-a75d-92c5ebf1c638{fill:#30df9a;}.bd94be05-510a-4a90-a52e-a8cf8441b55f{fill:#ed4096;}</style></defs><path class="a2dd75a7-3f09-4e7b-974f-2f7dd9a2e22c" d="M183.82,189.54H138.11a3.31,3.31,0,1,1,0-6.61h42.4V140a3.31,3.31,0,0,1,6.61,0v46.26A3.31,3.31,0,0,1,183.82,189.54Z"/><path class="a2dd75a7-3f09-4e7b-974f-2f7dd9a2e22c" d="M62.11,112.43a3.29,3.29,0,0,1-3.3-3.3V65.07a3.3,3.3,0,0,1,3.3-3.3h43a3.31,3.31,0,0,1,0,6.61H65.41v40.75A3.3,3.3,0,0,1,62.11,112.43Z"/><rect class="bd9fbb58-16d6-4ebe-a9b8-0497e0b5b4e9" x="124.6" y="127.57" width="47.93" height="47.93" rx="23.97"/><rect class="a860105c-5dbc-4110-a75d-92c5ebf1c638" x="71.74" y="127.57" width="47.93" height="47.93" rx="23.97"/><rect class="a2dd75a7-3f09-4e7b-974f-2f7dd9a2e22c" x="137.82" y="61.48" width="47.93" height="47.93" rx="23.97"/><rect class="a860105c-5dbc-4110-a75d-92c5ebf1c638" x="189.88" y="58.46" width="14.32" height="14.32" rx="7.16"/><rect class="bd94be05-510a-4a90-a52e-a8cf8441b55f" x="71.74" y="74.7" width="47.93" height="47.93" rx="23.97"/></svg>