<svg id="eb1b6b01-6cce-49b1-83a7-916a03f7a53d" data-name="Layer 1" xmlns="http://www.w3.org/2000/svg" viewBox="0 0 1080 500"><defs><style>.b8af950a-28e2-4c1e-b198-5e0c1be2338d{fill:#fff;}</style></defs><path class="b8af950a-28e2-4c1e-b198-5e0c1be2338d" d="M421.74,407.05H312.2a7.92,7.92,0,0,1,0-15.84H413.82V288.27a7.92,7.92,0,1,1,15.83,0V399.13A7.92,7.92,0,0,1,421.74,407.05Z"/><path class="b8af950a-28e2-4c1e-b198-5e0c1be2338d" d="M130.08,222.29a7.92,7.92,0,0,1-7.92-7.92V108.79a7.92,7.92,0,0,1,7.92-7.92H233a7.92,7.92,0,0,1,0,15.84H138v97.66A7.93,7.93,0,0,1,130.08,222.29Z"/><rect class="b8af950a-28e2-4c1e-b198-5e0c1be2338d" x="279.84" y="258.55" width="114.87" height="114.87" rx="57.43"/><rect class="b8af950a-28e2-4c1e-b198-5e0c1be2338d" x="153.15" y="258.55" width="114.87" height="114.87" rx="57.43"/><rect class="b8af950a-28e2-4c1e-b198-5e0c1be2338d" x="311.51" y="100.19" width="114.87" height="114.87" rx="57.43"/><rect class="b8af950a-28e2-4c1e-b198-5e0c1be2338d" x="436.25" y="92.95" width="34.31" height="34.31" rx="17.16"/><rect class="b8af950a-28e2-4c1e-b198-5e0c1be2338d" x="153.15" y="131.86" width="114.87" height="114.87" rx="57.43"/><path class="b8af950a-28e2-4c1e-b198-5e0c1be2338d" d="M566.32,149.7H531.94a3.42,3.42,0,0,0-3.45,3.41V255.38a3.43,3.43,0,0,0,3.45,3.42h18a3.43,3.43,0,0,0,3.45-3.42V225.19a3.44,3.44,0,0,1,3.45-3.41H567c23.34,0,43.08-11.34,43.08-37C610.07,158.29,590.54,149.7,566.32,149.7Zm-.81,52.51h-8.69a3.45,3.45,0,0,1-3.45-3.42V172.72a3.46,3.46,0,0,1,3.45-3.45h8c13.47,0,20.83,4.12,20.83,15.52S579.2,202.21,565.51,202.21Z"/><path class="b8af950a-28e2-4c1e-b198-5e0c1be2338d" d="M640.05,149.7h-18a3.42,3.42,0,0,0-3.45,3.41V255.38a3.43,3.43,0,0,0,3.45,3.42h18a3.43,3.43,0,0,0,3.45-3.42V153.11A3.42,3.42,0,0,0,640.05,149.7Z"/><path class="b8af950a-28e2-4c1e-b198-5e0c1be2338d" d="M737,253.73l-10.84-19.57-2-3.52-14-25.23a3.31,3.31,0,0,1,0-3.2l25.12-47.51a3.42,3.42,0,0,0-3.06-5H713.71a3.41,3.41,0,0,0-3.17,2.11l-7.84,18.51c-2.22,5-4.51,10.63-7.08,17.49H695c-3.16-6.86-5.52-12.45-8-17.49l-8.65-18.61a3.47,3.47,0,0,0-3.14-2H655.4a3.41,3.41,0,0,0-3,5l25,46.32a3.31,3.31,0,0,1,0,3.23L663.1,230.64l-1.93,3.52-10.63,19.61a3.43,3.43,0,0,0,3.06,5h18.58a3.47,3.47,0,0,0,3.14-2l9.39-20.23c.35-.81.71-1.59,1.06-2.4.49-1.16,1-2.32,1.51-3.52,1.65-3.76,3.31-7.67,5-12H693c1.93,4.36,3.69,8.27,5.42,12,.56,1.2,1.09,2.36,1.65,3.52l1.16,2.4,9.93,20.3a3.46,3.46,0,0,0,3.13,1.94H734A3.44,3.44,0,0,0,737,253.73Z"/><path class="b8af950a-28e2-4c1e-b198-5e0c1be2338d" d="M879.08,323.34h-76a6.72,6.72,0,0,1-6.75-6.69v-36a6.72,6.72,0,0,1,6.75-6.69H863a6.76,6.76,0,0,0,6.76-6.72v-27.2a6.74,6.74,0,0,0-6.76-6.73h-59.9a6.72,6.72,0,0,1-6.75-6.72V197a6.75,6.75,0,0,1,6.75-6.73h72.71a6.72,6.72,0,0,0,6.76-6.68V156.42a6.73,6.73,0,0,0-6.76-6.72H754.39a6.72,6.72,0,0,0-6.75,6.72v62a8.41,8.41,0,0,1,3-.56h33.22a7.45,7.45,0,0,1,7.68,7.71c0,2.81,0,5.63,0,8.44a3.23,3.23,0,0,0,2.32,3.24c2.15.74,4.3,1.44,6.44,2.18a3.16,3.16,0,0,1,2.36,3.28V267.6a3.18,3.18,0,0,1-2.29,3.2c-2.14.7-4.25,1.44-6.4,2.15a3.27,3.27,0,0,0-2.46,3.34c0,2.81,0,5.59,0,8.37a7.42,7.42,0,0,1-7.68,7.68q-16.57,0-33.15,0a8.46,8.46,0,0,1-3.09-.57v65.5a6.75,6.75,0,0,0,6.75,6.72H879.08a6.76,6.76,0,0,0,6.76-6.72V330.06A6.76,6.76,0,0,0,879.08,323.34ZM769.14,236.49a18.63,18.63,0,1,0,18.65,18.65A18.64,18.64,0,0,0,769.14,236.49Zm.07,29.8a11.17,11.17,0,1,1,11.16-11.12A11.08,11.08,0,0,1,769.21,266.29Zm9.68,16a2.66,2.66,0,0,0,2.64,2.64,2.61,2.61,0,0,0,0-5.21A2.66,2.66,0,0,0,778.89,282.27ZM755.62,232.4a1.74,1.74,0,0,0-1.75-1.76h-6.23v3.52h6.23A1.74,1.74,0,0,0,755.62,232.4Z"/><path class="b8af950a-28e2-4c1e-b198-5e0c1be2338d" d="M954.39,238.1H917.83a3.42,3.42,0,0,1-3.45-3.41V153.11a3.42,3.42,0,0,0-3.45-3.41h-18a3.42,3.42,0,0,0-3.45,3.41V255.38a3.43,3.43,0,0,0,3.45,3.42h61.48a3.43,3.43,0,0,0,3.45-3.42V241.52A3.45,3.45,0,0,0,954.39,238.1Z"/><path class="b8af950a-28e2-4c1e-b198-5e0c1be2338d" d="M735.07,265.87H716.88a2.9,2.9,0,0,0-2.78,2L700,309.62c-1.86,5.84-3.48,12.14-5.35,18.19H694c-1.86-6.05-3.52-12.35-5.42-18.19L674,267.88a3,3,0,0,0-2.78-2H653a3,3,0,0,0-3,3.06v92.35a3,3,0,0,0,3,3.1h13.2a3,3,0,0,0,3-3.1v-33c0-9.6-1.73-24-2.71-33.47H667l7.53,23.3,12.64,35.72a2.9,2.9,0,0,0,2.78,2h7.7a2.9,2.9,0,0,0,2.75-2L713,318.06l7.74-23.3h.57c-1,9.51-2.71,23.87-2.71,33.47v33a3,3,0,0,0,2.92,3.1h13.51a3,3,0,0,0,3-3.1V268.93A3,3,0,0,0,735.07,265.87Z"/></svg>